<?xml version="1.0" encoding="UTF-8" standalone="no"?>
<!DOCTYPE svg PUBLIC "-//W3C//DTD SVG 1.1//EN" "http://www.w3.org/Graphics/SVG/1.1/DTD/svg11.dtd">
<svg width="100%" height="100%" viewBox="0 0 71 32" version="1.1" xmlns="http://www.w3.org/2000/svg" xmlns:xlink="http://www.w3.org/1999/xlink" xml:space="preserve" xmlns:serif="http://www.serif.com/" style="fill-rule:evenodd;clip-rule:evenodd;stroke-linejoin:round;stroke-miterlimit:2;">
    <g transform="matrix(0.179882,0,0,0.179882,35.9574,14.4368)">
        <g id="watermark.svg" transform="matrix(1,0,0,1,-200,-61.067)">
            <g id="svgg">
                <path id="path0" d="M4.333,70.083C4.333,80.861 4.363,82.333 4.583,82.333C4.721,82.333 4.833,82.48 4.833,82.658C4.833,82.837 4.965,83.06 5.125,83.153C5.285,83.247 5.364,83.325 5.3,83.328C5.117,83.336 5.934,84.167 6.124,84.167C6.217,84.167 6.386,84.279 6.5,84.417C6.614,84.554 6.928,84.667 7.197,84.667C7.481,84.667 7.643,84.737 7.583,84.833C7.515,84.943 9.89,85 14.583,85L21.686,85L21.634,91.75C21.606,95.463 21.637,98.5 21.703,98.5C21.769,98.5 21.78,98.612 21.727,98.75C21.674,98.888 21.714,99 21.816,99C21.917,99 22,99.225 22,99.5C22,99.833 22.083,100 22.25,100C22.477,100 22.575,100.2 22.518,100.546C22.506,100.618 22.61,100.719 22.748,100.772C22.887,100.826 23,100.973 23,101.101C23,101.229 23.108,101.333 23.24,101.333C23.372,101.333 23.534,101.42 23.599,101.526C23.678,101.653 23.644,101.673 23.5,101.583C23.356,101.494 23.322,101.514 23.401,101.641C23.466,101.747 23.703,101.833 23.927,101.833C24.163,101.833 24.333,101.931 24.333,102.065C24.333,102.192 24.427,102.293 24.542,102.289C25.147,102.266 25.508,102.351 25.419,102.496C25.355,102.6 29.49,102.66 37.076,102.664L48.833,102.671L48.833,85.039L48.458,84.938C47.968,84.807 44.438,84.804 44.097,84.934C43.863,85.024 43.833,85.731 43.833,91.184L43.833,97.333L27,97.333L27,88.768C27,81.111 26.972,80.192 26.736,80.101C26.591,80.046 22.724,80 18.141,80C11.143,80 9.771,79.962 9.571,79.762C9.372,79.562 9.333,78.208 9.333,71.322L9.333,63.121L15.667,63.2L22,63.28L22.021,62.848C22.09,61.433 21.94,58.218 21.796,58.042C21.664,57.88 19.695,57.833 12.98,57.833L4.333,57.833L4.333,70.083M26.938,58.208C26.806,58.704 26.805,62.149 26.938,62.813L27.042,63.333L28.197,63.333C28.944,63.333 29.316,63.394 29.247,63.504C29.189,63.598 29.204,63.664 29.279,63.651C30.033,63.52 31.358,63.695 31.274,63.915C31.221,64.051 31.232,64.155 31.298,64.145C31.83,64.066 32.688,64.212 32.893,64.417C33.03,64.554 33.34,64.667 33.581,64.667C33.831,64.667 33.975,64.738 33.917,64.833C33.858,64.928 34.002,65 34.252,65C34.493,65 34.803,65.112 34.94,65.25C35.078,65.387 35.331,65.5 35.502,65.5C35.673,65.5 35.867,65.587 35.933,65.692C36.011,65.82 35.978,65.839 35.833,65.75C35.689,65.661 35.655,65.68 35.734,65.808C35.799,65.913 36.002,66 36.184,66C36.367,66 36.7,66.198 36.925,66.441C37.149,66.684 37.333,66.79 37.333,66.678C37.333,66.566 37.577,66.719 37.875,67.018C38.173,67.317 38.398,67.623 38.375,67.698C38.352,67.772 38.414,67.833 38.513,67.833C38.746,67.833 39.667,68.754 39.667,68.987C39.667,69.086 39.798,69.168 39.958,69.169C40.182,69.171 40.198,69.205 40.028,69.313C39.85,69.425 39.86,69.475 40.08,69.559C40.231,69.617 40.308,69.74 40.251,69.832C40.194,69.924 40.264,70 40.407,70C40.55,70 40.667,70.112 40.667,70.25C40.667,70.387 40.727,70.5 40.801,70.5C40.954,70.5 41.556,71.791 41.556,72.119C41.556,72.237 41.674,72.334 41.819,72.336C42.051,72.338 42.052,72.358 41.833,72.5C41.667,72.608 41.653,72.662 41.792,72.664C41.906,72.666 42,72.857 42,73.089C42,73.321 42.112,73.554 42.25,73.606C42.41,73.668 42.5,73.924 42.5,74.318C42.5,74.656 42.579,75.013 42.677,75.11C42.774,75.207 42.878,75.616 42.908,76.018C42.939,76.421 42.972,76.848 42.982,76.968C42.992,77.088 43.075,77.14 43.167,77.083C43.266,77.022 43.333,77.216 43.333,77.56C43.333,78.233 44.045,79.751 44.43,79.899C44.96,80.102 48.239,79.998 48.542,79.768C48.931,79.472 48.966,77.833 48.583,77.833C48.381,77.833 48.333,77.567 48.333,76.434C48.333,75.345 48.278,75.014 48.083,74.94C47.912,74.874 47.833,74.606 47.833,74.089C47.833,73.673 47.758,73.333 47.667,73.333C47.575,73.333 47.5,73.088 47.5,72.787C47.5,72.487 47.385,72.076 47.244,71.875C47.103,71.674 46.971,71.288 46.952,71.019C46.933,70.749 46.846,70.541 46.759,70.556C46.673,70.571 46.555,70.396 46.499,70.167C46.298,69.354 45.965,68.668 45.817,68.76C45.734,68.811 45.667,68.704 45.667,68.522C45.667,68.34 45.554,68.078 45.417,67.94C45.279,67.803 45.164,67.591 45.161,67.47C45.154,67.205 44.589,66.5 44.384,66.5C44.303,66.5 44.226,66.348 44.212,66.163C44.198,65.978 43.807,65.445 43.343,64.978C42.88,64.512 42.5,64.064 42.5,63.982C42.5,63.9 42.387,63.833 42.25,63.833C42.112,63.833 42,63.721 42,63.583C42,63.446 41.906,63.33 41.792,63.326C41.677,63.322 41.399,63.097 41.174,62.826C40.95,62.555 40.639,62.333 40.484,62.333C40.329,62.333 40.159,62.22 40.106,62.082C40.053,61.943 39.951,61.847 39.88,61.867C39.686,61.923 38.936,61.484 38.783,61.226C38.71,61.102 38.466,61 38.242,61C37.99,61 37.833,60.904 37.833,60.75C37.833,60.594 37.676,60.5 37.417,60.5C37.188,60.5 37,60.425 37,60.333C37,60.242 36.822,60.167 36.604,60.167C36.386,60.167 36.114,60.054 36,59.917C35.886,59.779 35.539,59.667 35.23,59.667C34.84,59.667 34.667,59.59 34.667,59.417C34.667,59.232 34.474,59.167 33.931,59.167C33.491,59.167 33.167,59.083 33.125,58.959C33.054,58.744 33.01,58.735 31.948,58.692C31.599,58.678 31.352,58.604 31.399,58.528C31.447,58.451 31.395,58.384 31.284,58.379C31.174,58.373 30.471,58.351 29.722,58.329C28.649,58.298 28.379,58.242 28.448,58.062C28.514,57.889 28.352,57.833 27.787,57.833C27.152,57.833 27.024,57.89 26.938,58.208" style="fill:rgb(68,195,211);"/>
                <path id="path1" d="M21.601,40.43C21.546,40.575 21.5,44.55 21.5,49.264L21.5,57.833L22.5,57.833L22.5,60.482C22.5,62.683 22.458,63.147 22.25,63.227C22.053,63.302 22,63.644 22,64.833C22,66.022 22.053,66.364 22.25,66.44C22.436,66.511 22.5,66.808 22.5,67.601C22.5,68.437 22.554,68.667 22.75,68.667C22.942,68.667 23,68.88 23,69.583C23,70.087 23.075,70.5 23.167,70.5C23.258,70.5 23.333,70.72 23.333,70.988C23.333,71.257 23.446,71.589 23.583,71.726C23.721,71.864 23.833,72.134 23.833,72.327C23.833,72.519 23.946,72.72 24.083,72.773C24.221,72.826 24.333,73.048 24.333,73.268C24.333,73.487 24.402,73.667 24.487,73.667C24.571,73.667 24.69,73.892 24.75,74.167C24.81,74.442 24.929,74.667 25.013,74.667C25.098,74.667 25.167,74.854 25.167,75.083C25.167,75.313 25.261,75.5 25.377,75.5C25.577,75.5 25.854,75.902 26.096,76.542C26.156,76.702 26.307,76.833 26.431,76.833C26.563,76.833 26.616,76.937 26.56,77.083C26.5,77.242 26.563,77.333 26.732,77.333C26.879,77.333 27,77.446 27,77.583C27,77.721 27.107,77.833 27.239,77.833C27.37,77.833 27.525,77.983 27.583,78.167C27.642,78.35 27.759,78.5 27.845,78.5C27.93,78.5 28,78.6 28,78.723C28,78.846 28.188,79.032 28.417,79.136C28.646,79.241 28.833,79.403 28.833,79.496C28.833,79.59 28.914,79.667 29.013,79.667C29.112,79.667 29.472,79.967 29.814,80.333C30.174,80.719 30.59,81 30.801,81C31.002,81 31.167,81.075 31.167,81.167C31.167,81.258 31.279,81.333 31.417,81.333C31.554,81.333 31.667,81.446 31.667,81.583C31.667,81.739 31.824,81.833 32.083,81.833C32.343,81.833 32.5,81.928 32.5,82.083C32.5,82.23 32.655,82.336 32.875,82.339C33.081,82.342 33.396,82.454 33.574,82.589C33.751,82.723 34.07,82.833 34.282,82.833C34.494,82.833 34.667,82.908 34.667,83C34.667,83.092 34.884,83.167 35.149,83.167C35.424,83.167 35.672,83.274 35.727,83.417C35.788,83.575 36.043,83.667 36.423,83.667C36.754,83.667 37.136,83.779 37.274,83.917C37.429,84.072 37.839,84.167 38.357,84.167C38.876,84.167 39.285,84.261 39.44,84.417C39.615,84.591 40.041,84.667 40.845,84.667C41.504,84.667 42,84.738 42,84.833C42,84.925 42.412,85 42.917,85C43.783,85 43.833,84.977 43.833,84.583L43.833,84.167L48.833,84.167L48.833,85L66.5,85L66.5,73C66.5,62.444 66.47,61 66.25,61C66.094,61 66,60.843 66,60.583C66,60.354 65.925,60.167 65.833,60.167C65.742,60.167 65.667,60.094 65.667,60.006C65.667,59.783 64.544,58.679 64.432,58.791C64.382,58.84 64.294,58.758 64.236,58.607C64.178,58.457 63.952,58.333 63.732,58.333C63.513,58.333 63.333,58.238 63.333,58.122C63.333,57.953 61.869,57.923 56.083,57.974L48.833,58.039L48.833,50.706C48.833,44.392 48.799,43.345 48.583,43.167C48.446,43.053 48.333,42.86 48.333,42.738C48.333,42.616 48.234,42.457 48.112,42.383C47.991,42.31 47.841,42.112 47.778,41.943C47.716,41.773 47.515,41.596 47.332,41.548C47.15,41.5 47,41.357 47,41.231C47,41.104 46.887,41 46.75,41C46.612,41 46.5,40.925 46.5,40.833C46.5,40.742 46.2,40.667 45.833,40.667C45.352,40.667 45.167,40.597 45.167,40.417C45.167,40.025 21.751,40.039 21.601,40.43M43.833,54.177L43.833,62.833L52.333,62.833C60.611,62.833 60.842,62.842 61.167,63.167C61.491,63.491 61.5,63.722 61.5,71.583L61.5,79.667L48.833,79.667L48.833,80.5L46.333,80.5C44.308,80.5 43.833,80.456 43.833,80.268C43.833,80.14 43.721,79.992 43.583,79.94C43.399,79.869 43.333,79.578 43.333,78.839C43.333,78.056 43.278,77.833 43.083,77.833C42.937,77.833 42.831,77.678 42.828,77.458C42.822,77.028 42.47,76.5 42.19,76.5C42.085,76.5 42,76.387 42,76.25C42,76.112 41.887,76 41.75,76C41.606,76 41.5,75.849 41.5,75.644C41.5,75.448 41.313,75.114 41.083,74.902C40.854,74.69 40.667,74.437 40.667,74.341C40.667,74.245 40.554,74.167 40.417,74.167C40.279,74.167 40.167,74.054 40.167,73.917C40.167,73.779 40.067,73.667 39.945,73.667C39.823,73.667 39.623,73.479 39.5,73.25C39.377,73.021 39.177,72.833 39.055,72.833C38.933,72.833 38.833,72.721 38.833,72.583C38.833,72.446 38.721,72.333 38.583,72.333C38.446,72.333 38.333,72.221 38.333,72.083C38.333,71.946 38.261,71.833 38.174,71.833C38.086,71.833 37.699,71.533 37.313,71.167C36.928,70.8 36.546,70.5 36.465,70.5C36.384,70.5 36.144,70.313 35.931,70.083C35.719,69.854 35.457,69.667 35.349,69.667C35.14,69.667 34.815,69.432 34.368,68.958C34.216,68.798 34.012,68.667 33.913,68.667C33.561,68.667 32.836,68.247 32.835,68.042C32.834,67.927 32.652,67.833 32.431,67.833C31.692,67.833 31.751,69.106 32.526,69.907C32.787,70.176 33,70.505 33,70.638C33,70.77 33.188,71.052 33.417,71.265C33.646,71.477 33.833,71.769 33.833,71.914C33.833,72.059 33.946,72.22 34.083,72.273C34.221,72.326 34.333,72.473 34.333,72.601C34.333,72.729 34.45,72.833 34.593,72.833C34.736,72.833 34.807,72.908 34.75,73C34.693,73.092 34.756,73.167 34.889,73.167C35.022,73.167 35.178,73.354 35.235,73.583C35.293,73.813 35.413,74 35.503,74C35.593,74 35.667,74.112 35.667,74.25C35.667,74.387 35.779,74.5 35.917,74.5C36.054,74.5 36.167,74.581 36.167,74.68C36.167,74.914 37.586,76.333 37.82,76.333C37.919,76.333 38,76.446 38,76.583C38,76.724 38.149,76.833 38.339,76.833C38.525,76.833 38.72,76.946 38.773,77.083C38.826,77.221 38.973,77.333 39.101,77.333C39.229,77.333 39.333,77.414 39.333,77.512C39.333,77.734 39.754,78.167 39.97,78.167C40.059,78.167 40.174,78.279 40.227,78.417C40.28,78.554 40.513,78.667 40.745,78.667C41.009,78.667 41.167,78.76 41.167,78.917C41.167,79.098 40.98,79.167 40.488,79.167C40.107,79.167 39.7,79.057 39.56,78.917C39.414,78.772 39.007,78.667 38.589,78.667C38.111,78.667 37.838,78.585 37.776,78.423C37.713,78.259 37.489,78.195 37.091,78.226C36.69,78.258 36.5,78.202 36.5,78.053C36.5,77.93 36.317,77.833 36.083,77.833C35.824,77.833 35.667,77.739 35.667,77.583C35.667,77.417 35.5,77.333 35.167,77.333C34.833,77.333 34.667,77.25 34.667,77.083C34.667,76.946 34.554,76.833 34.417,76.833C34.279,76.833 34.167,76.758 34.167,76.667C34.167,76.575 33.979,76.5 33.75,76.5C33.521,76.5 33.333,76.427 33.333,76.338C33.333,76.126 31.874,74.667 31.662,74.667C31.573,74.667 31.5,74.583 31.5,74.48C31.5,74.378 31.2,74.003 30.833,73.647C30.467,73.292 30.167,72.85 30.167,72.667C30.167,72.482 30.056,72.333 29.917,72.333C29.761,72.333 29.667,72.176 29.667,71.917C29.667,71.688 29.592,71.5 29.5,71.5C29.408,71.5 29.333,71.355 29.333,71.179C29.333,71.002 29.221,70.745 29.083,70.607C28.946,70.47 28.833,70.202 28.833,70.012C28.833,69.816 28.725,69.667 28.583,69.667C28.403,69.667 28.333,69.481 28.333,69C28.333,68.633 28.268,68.333 28.188,68.333C28.108,68.333 28.005,67.943 27.959,67.465C27.913,66.988 27.791,66.569 27.688,66.535C27.574,66.497 27.5,66.046 27.5,65.398C27.5,64.596 27.436,64.298 27.25,64.227C27.112,64.174 27,63.953 27,63.735C27,63.451 26.881,63.31 26.579,63.234L26.158,63.128L26.204,60.523C26.249,57.963 26.257,57.916 26.625,57.863L27,57.81L27,45.503L35.292,45.46C39.852,45.436 43.64,45.44 43.708,45.468C43.777,45.496 43.833,49.415 43.833,54.177M81.5,71.667L81.5,80.5L99.167,80.5L99.167,77.833L84.667,77.833L84.667,62.833L81.5,62.833L81.5,71.667M103.833,63.25C103.833,63.479 103.908,63.667 104,63.667C104.092,63.667 104.167,63.779 104.167,63.917C104.167,64.054 104.279,64.167 104.417,64.167C104.554,64.167 104.667,64.279 104.667,64.417C104.667,64.554 104.779,64.667 104.917,64.667C105.054,64.667 105.167,64.742 105.167,64.833C105.167,64.925 105.354,65 105.583,65C105.843,65 106,65.094 106,65.25C106,65.387 106.112,65.5 106.25,65.5C106.388,65.5 106.5,65.612 106.5,65.75C106.5,65.887 106.612,66 106.75,66C106.888,66 107,66.075 107,66.167C107,66.259 107.3,66.464 107.667,66.623C108.033,66.782 108.333,66.974 108.333,67.049C108.333,67.281 109.396,68.174 109.792,68.274C109.998,68.327 110.167,68.436 110.167,68.518C110.167,68.6 110.279,68.667 110.417,68.667C110.554,68.667 110.649,68.723 110.628,68.792C110.564,68.998 111.222,69.666 111.495,69.672C111.825,69.679 112.333,70.066 112.333,70.31C112.333,70.415 112.446,70.5 112.583,70.5C112.721,70.5 112.834,70.594 112.835,70.708C112.836,70.823 113.136,71.06 113.502,71.235C113.868,71.41 114.167,71.617 114.167,71.693C114.167,71.77 114.279,71.833 114.417,71.833C114.554,71.833 114.667,71.946 114.667,72.083C114.667,72.221 114.752,72.333 114.857,72.333C115.409,72.333 115.489,72.887 115.495,76.708L115.5,80.5L118.327,80.5L118.372,76.542C118.416,72.617 118.42,72.582 118.792,72.419C118.998,72.328 119.167,72.16 119.167,72.044C119.167,71.928 119.252,71.833 119.356,71.833C119.46,71.833 119.719,71.646 119.931,71.417C120.144,71.188 120.436,71 120.581,71C120.725,71 120.887,70.887 120.94,70.75C120.992,70.612 121.14,70.5 121.268,70.5C121.396,70.5 121.5,70.42 121.5,70.321C121.5,70.068 121.87,69.73 122.295,69.595C122.495,69.532 122.924,69.222 123.249,68.907C123.574,68.591 123.905,68.333 123.985,68.333C124.065,68.333 124.174,68.221 124.227,68.083C124.28,67.946 124.475,67.833 124.661,67.833C124.851,67.833 125,67.724 125,67.583C125,67.446 125.112,67.333 125.25,67.333C125.388,67.333 125.5,67.221 125.5,67.083C125.5,66.946 125.612,66.833 125.75,66.833C125.888,66.833 126,66.766 126,66.685C126,66.603 126.188,66.489 126.417,66.432C126.646,66.374 126.833,66.253 126.833,66.163C126.833,66.074 126.946,66 127.083,66C127.221,66 127.333,65.887 127.333,65.75C127.333,65.612 127.446,65.5 127.583,65.5C127.721,65.5 127.833,65.405 127.833,65.289C127.833,65.173 128.133,64.949 128.5,64.79C128.867,64.631 129.167,64.426 129.167,64.334C129.167,64.242 129.261,64.167 129.376,64.167C129.632,64.167 130.065,63.24 129.919,63.004C129.66,62.585 125.739,62.799 125.4,63.25C125.228,63.479 124.993,63.667 124.877,63.667C124.761,63.667 124.667,63.779 124.667,63.917C124.667,64.072 124.509,64.167 124.25,64.167C123.991,64.167 123.833,64.261 123.833,64.417C123.833,64.554 123.721,64.667 123.583,64.667C123.446,64.667 123.333,64.779 123.333,64.917C123.333,65.054 123.221,65.167 123.083,65.167C122.946,65.167 122.833,65.24 122.833,65.33C122.833,65.42 122.646,65.541 122.417,65.598C122.188,65.656 122,65.77 122,65.851C122,65.933 121.888,66 121.75,66C121.612,66 121.5,66.112 121.5,66.25C121.5,66.387 121.396,66.5 121.268,66.5C121.14,66.5 120.991,66.617 120.936,66.761C120.881,66.904 120.768,66.979 120.685,66.928C120.603,66.877 120.492,66.947 120.439,67.084C120.387,67.221 120.191,67.333 120.005,67.333C119.815,67.333 119.667,67.443 119.667,67.583C119.667,67.721 119.554,67.833 119.417,67.833C119.279,67.833 119.167,67.946 119.167,68.083C119.167,68.221 119.05,68.333 118.907,68.333C118.764,68.333 118.693,68.408 118.75,68.5C118.807,68.592 118.704,68.667 118.522,68.667C118.34,68.667 118.078,68.779 117.94,68.917C117.803,69.054 117.61,69.167 117.512,69.167C117.414,69.167 117.333,69.247 117.333,69.345C117.333,69.837 116.89,69.969 116.588,69.568C116.422,69.347 116.217,69.167 116.131,69.167C116.046,69.167 115.872,69.073 115.744,68.958C115.192,68.464 115.004,68.333 114.84,68.333C114.745,68.333 114.667,68.221 114.667,68.083C114.667,67.946 114.562,67.833 114.434,67.833C114.307,67.833 114.159,67.721 114.106,67.583C114.054,67.446 113.866,67.333 113.69,67.333C113.513,67.333 113.324,67.216 113.269,67.073C113.214,66.929 113.093,66.859 113.001,66.916C112.909,66.973 112.833,66.903 112.833,66.76C112.833,66.617 112.721,66.5 112.583,66.5C112.446,66.5 112.333,66.387 112.333,66.25C112.333,66.094 112.176,66 111.917,66C111.657,66 111.5,65.906 111.5,65.75C111.5,65.612 111.388,65.5 111.25,65.5C111.112,65.5 111,65.425 111,65.333C111,65.242 110.888,65.167 110.75,65.167C110.612,65.167 110.5,65.072 110.5,64.956C110.5,64.756 110.098,64.479 109.458,64.238C109.298,64.177 109.167,64.024 109.167,63.897C109.167,63.77 109.054,63.667 108.917,63.667C108.779,63.667 108.667,63.592 108.667,63.5C108.667,63.408 108.562,63.333 108.434,63.333C108.307,63.333 108.159,63.221 108.106,63.083C108.028,62.88 107.625,62.833 105.922,62.833L103.833,62.833L103.833,63.25M134.667,64.167L134.667,65.5L143.167,65.5L143.169,72.625C143.172,81.333 142.976,80.461 144.932,80.486L146.5,80.506L146.5,65.5L155,65.5L155,62.833L134.667,62.833L134.667,64.167M163.25,71.667L163.25,80.5L181.833,80.5L181.833,77.833L166.333,77.833L166.333,72.833L180.013,72.833L179.965,71.489L179.917,70.144L173.125,70.161L166.333,70.177L166.333,65.5L181.833,65.5L181.833,62.833L163.25,62.833L163.25,71.667M202.333,71.661L202.333,80.5L205.5,80.5L205.5,74.583C205.5,69.491 205.534,68.667 205.745,68.667C205.894,68.667 205.952,68.764 205.894,68.917C205.833,69.075 205.896,69.167 206.066,69.167C206.24,69.167 206.333,69.312 206.333,69.583C206.333,69.843 206.428,70 206.583,70C206.721,70 206.833,70.112 206.833,70.25C206.833,70.387 206.946,70.5 207.083,70.5C207.239,70.5 207.333,70.657 207.333,70.917C207.333,71.146 207.408,71.333 207.5,71.333C207.592,71.333 207.667,71.446 207.667,71.583C207.667,71.721 207.779,71.833 207.917,71.833C208.054,71.833 208.167,71.946 208.167,72.083C208.167,72.221 208.279,72.333 208.417,72.333C208.572,72.333 208.667,72.491 208.667,72.75C208.667,73.009 208.761,73.167 208.917,73.167C209.054,73.167 209.167,73.279 209.167,73.417C209.167,73.554 209.234,73.667 209.315,73.667C209.397,73.667 209.511,73.854 209.568,74.083C209.626,74.313 209.747,74.5 209.837,74.5C209.926,74.5 210,74.612 210,74.75C210,74.887 210.112,75 210.25,75C210.387,75 210.5,75.112 210.5,75.25C210.5,75.387 210.61,75.5 210.745,75.5C210.884,75.5 210.952,75.599 210.902,75.729C210.854,75.854 210.931,76.074 211.074,76.217C211.217,76.359 211.333,76.557 211.333,76.655C211.333,76.753 211.438,76.833 211.565,76.833C211.693,76.833 211.844,77.021 211.902,77.25C211.959,77.479 212.08,77.667 212.17,77.667C212.26,77.667 212.333,77.779 212.333,77.917C212.333,78.054 212.408,78.167 212.5,78.167C212.592,78.167 212.667,78.279 212.667,78.417C212.667,78.554 212.779,78.667 212.917,78.667C213.072,78.667 213.167,78.824 213.167,79.083C213.167,79.343 213.261,79.5 213.417,79.5C213.554,79.5 213.667,79.612 213.667,79.75C213.667,79.887 213.779,80 213.917,80C214.054,80 214.148,80.094 214.125,80.208C214.095,80.359 214.467,80.43 215.458,80.465C216.606,80.505 216.833,80.471 216.833,80.257C216.833,80.116 216.919,80 217.023,80C217.281,80 217.655,79.484 217.661,79.12C217.664,78.956 217.779,78.78 217.917,78.727C218.054,78.674 218.167,78.527 218.167,78.399C218.167,78.271 218.279,78.167 218.417,78.167C218.554,78.167 218.667,78.054 218.667,77.917C218.667,77.779 218.742,77.667 218.833,77.667C218.925,77.667 219,77.479 219,77.25C219,77.021 219.075,76.833 219.167,76.833C219.425,76.833 220,76.197 220,75.911C220,75.771 220.112,75.613 220.25,75.56C220.387,75.508 220.5,75.36 220.5,75.232C220.5,75.104 220.575,75 220.667,75C220.758,75 220.833,74.887 220.833,74.75C220.833,74.612 220.946,74.5 221.083,74.5C221.239,74.5 221.333,74.343 221.333,74.083C221.333,73.824 221.428,73.667 221.583,73.667C221.721,73.667 221.833,73.554 221.833,73.417C221.833,73.279 221.908,73.167 222,73.167C222.092,73.167 222.167,73.025 222.167,72.851C222.167,72.678 222.279,72.492 222.417,72.44C222.554,72.387 222.667,72.229 222.667,72.089C222.667,71.948 222.779,71.833 222.917,71.833C223.054,71.833 223.167,71.721 223.167,71.583C223.167,71.446 223.24,71.333 223.33,71.333C223.42,71.333 223.541,71.146 223.598,70.917C223.656,70.688 223.77,70.5 223.851,70.5C223.933,70.5 224,70.387 224,70.25C224,70.112 224.112,70 224.25,70C224.39,70 224.5,69.851 224.5,69.661C224.5,69.475 224.612,69.28 224.75,69.227C224.887,69.174 225,69.035 225,68.917C225,68.799 225.112,68.659 225.25,68.606C225.469,68.522 225.5,69.245 225.5,74.505L225.5,80.5L228.67,80.5L228.626,71.708L228.583,62.917L227.042,62.869C225.745,62.828 225.5,62.862 225.5,63.077C225.5,63.218 225.425,63.333 225.333,63.333C225.044,63.333 224.5,63.986 224.5,64.333C224.5,64.524 224.389,64.667 224.24,64.667C224.097,64.667 224.027,64.742 224.084,64.835C224.141,64.927 224.071,65.047 223.927,65.102C223.784,65.157 223.667,65.307 223.667,65.434C223.667,65.562 223.593,65.667 223.503,65.667C223.413,65.667 223.293,65.854 223.235,66.083C223.178,66.313 223.039,66.5 222.927,66.5C222.666,66.5 222.261,67.247 222.399,67.472C222.457,67.566 222.354,67.691 222.169,67.749C221.984,67.808 221.833,67.963 221.833,68.095C221.833,68.226 221.721,68.333 221.583,68.333C221.446,68.333 221.333,68.446 221.333,68.583C221.333,68.721 221.26,68.833 221.17,68.833C221.08,68.833 220.959,69.021 220.902,69.25C220.844,69.479 220.73,69.667 220.649,69.667C220.567,69.667 220.5,69.779 220.5,69.917C220.5,70.054 220.387,70.167 220.25,70.167C220.094,70.167 220,70.324 220,70.583C220,70.843 219.906,71 219.75,71C219.612,71 219.5,71.104 219.5,71.232C219.5,71.36 219.383,71.509 219.239,71.564C219.096,71.619 219.026,71.74 219.083,71.832C219.14,71.924 219.069,72 218.927,72C218.76,72 218.667,72.15 218.667,72.417C218.667,72.676 218.572,72.833 218.417,72.833C218.279,72.833 218.167,72.946 218.167,73.083C218.167,73.221 218.054,73.333 217.917,73.333C217.779,73.333 217.667,73.431 217.667,73.55C217.667,73.933 217.257,74.664 217.042,74.665C216.927,74.666 216.833,74.779 216.833,74.917C216.833,75.054 216.721,75.167 216.583,75.167C216.428,75.167 216.333,75.324 216.333,75.583C216.333,75.843 216.239,76 216.083,76C215.946,76 215.852,76.094 215.875,76.208C215.898,76.326 215.716,76.44 215.458,76.469C215.1,76.511 215,76.453 215,76.205C215,76.03 214.7,75.572 214.333,75.187C213.967,74.801 213.667,74.35 213.667,74.185C213.667,74.019 213.442,73.711 213.167,73.5C212.892,73.289 212.667,72.992 212.667,72.838C212.667,72.51 211.806,71.5 211.527,71.5C211.42,71.5 211.333,71.31 211.333,71.078C211.333,70.846 211.221,70.613 211.083,70.56C210.946,70.508 210.833,70.36 210.833,70.232C210.833,70.104 210.763,70 210.678,70C210.592,70 210.479,69.862 210.425,69.694C210.295,69.282 209.435,68.333 209.193,68.333C209.087,68.333 209,68.147 209,67.919C209,67.468 208.525,66.798 208.304,66.935C208.228,66.982 208.167,66.874 208.167,66.697C208.167,66.519 208.054,66.281 207.917,66.167C207.779,66.053 207.667,65.888 207.667,65.801C207.667,65.587 207.233,65.167 207.012,65.167C206.914,65.167 206.833,64.977 206.833,64.745C206.833,64.513 206.721,64.28 206.583,64.227C206.446,64.174 206.333,64.027 206.333,63.899C206.333,63.771 206.239,63.667 206.123,63.667C206.007,63.667 205.838,63.498 205.748,63.292C205.596,62.945 205.461,62.913 203.958,62.869L202.333,62.821L202.333,71.661M238.167,71.667L238.167,80.5L257.167,80.5L257.167,77.833L241.167,77.833L241.167,72.833L255.347,72.833L255.298,71.487L255.25,70.141L241.25,70.083L241.204,67.792L241.157,65.5L257.167,65.5L257.167,62.833L238.167,62.833L238.167,71.667M265.833,71.667L265.833,80.5L272.405,80.5C278.024,80.5 279.012,80.464 279.226,80.25C279.383,80.094 279.792,80 280.321,80C280.786,80 281.167,79.925 281.167,79.833C281.167,79.742 281.357,79.667 281.589,79.667C281.821,79.667 282.054,79.554 282.106,79.417C282.16,79.278 282.407,79.167 282.664,79.167C282.918,79.167 283.219,79.054 283.333,78.917C283.447,78.779 283.644,78.667 283.77,78.667C283.897,78.667 284,78.554 284,78.417C284,78.272 284.151,78.167 284.356,78.167C284.552,78.167 284.886,77.979 285.098,77.75C285.31,77.521 285.563,77.333 285.659,77.333C285.755,77.333 285.833,77.221 285.833,77.083C285.833,76.946 285.907,76.833 285.997,76.833C286.087,76.833 286.207,76.646 286.265,76.417C286.322,76.188 286.436,76 286.518,76C286.6,76 286.667,75.859 286.667,75.687C286.667,75.515 286.783,75.278 286.925,75.16C287.067,75.042 287.171,74.789 287.157,74.598C287.103,73.908 287.171,73.667 287.417,73.667C287.624,73.667 287.667,73.342 287.667,71.745C287.667,70.19 287.619,69.805 287.417,69.727C287.254,69.664 287.167,69.405 287.167,68.982C287.167,68.517 287.096,68.333 286.917,68.333C286.75,68.333 286.667,68.167 286.667,67.833C286.667,67.558 286.592,67.333 286.5,67.333C286.408,67.333 286.333,67.181 286.333,66.995C286.333,66.809 286.221,66.613 286.083,66.56C285.946,66.508 285.833,66.36 285.833,66.232C285.833,66.104 285.721,66 285.583,66C285.446,66 285.333,65.887 285.333,65.75C285.333,65.612 285.221,65.5 285.083,65.5C284.946,65.5 284.833,65.443 284.833,65.373C284.833,65.246 284.339,64.944 283.792,64.738C283.631,64.677 283.5,64.524 283.5,64.397C283.5,64.261 283.325,64.167 283.071,64.167C282.836,64.167 282.53,64.054 282.393,63.917C282.255,63.779 281.848,63.667 281.488,63.667C281.128,63.667 280.833,63.592 280.833,63.5C280.833,63.405 280.339,63.333 279.684,63.333C278.817,63.333 278.512,63.272 278.44,63.083C278.357,62.867 277.495,62.833 272.089,62.833L265.833,62.833L265.833,71.667M296.749,63.208C296.699,63.415 296.678,67.371 296.704,72L296.75,80.417L298.292,80.465L299.833,80.513L299.833,62.833L298.337,62.833C296.922,62.833 296.835,62.854 296.749,63.208M318.56,63.083C318.491,63.263 318.211,63.333 317.566,63.333C317.071,63.333 316.667,63.408 316.667,63.5C316.667,63.592 316.367,63.667 316,63.667C315.519,63.667 315.333,63.736 315.333,63.917C315.333,64.072 315.176,64.167 314.917,64.167C314.657,64.167 314.5,64.261 314.5,64.417C314.5,64.581 314.335,64.667 314.018,64.667C313.743,64.667 313.494,64.774 313.44,64.917C313.387,65.054 313.191,65.167 313.005,65.167C312.819,65.167 312.667,65.242 312.667,65.333C312.667,65.425 312.554,65.5 312.417,65.5C312.279,65.5 312.167,65.612 312.167,65.75C312.167,65.887 312.054,66 311.917,66C311.779,66 311.667,66.104 311.667,66.232C311.667,66.36 311.549,66.509 311.406,66.564C311.263,66.619 311.193,66.742 311.252,66.836C311.31,66.931 311.259,66.988 311.137,66.962C311.006,66.935 310.895,67.101 310.864,67.375C310.834,67.637 310.709,67.833 310.572,67.833C310.431,67.833 310.333,67.997 310.333,68.232C310.333,68.452 310.221,68.674 310.083,68.727C309.913,68.792 309.833,69.059 309.833,69.568C309.833,69.978 309.758,70.36 309.667,70.417C309.575,70.473 309.5,71.148 309.5,71.917C309.5,72.685 309.575,73.36 309.667,73.417C309.758,73.473 309.833,73.853 309.833,74.26C309.833,74.807 309.899,75 310.083,75C310.25,75 310.333,75.167 310.333,75.5C310.333,75.833 310.417,76 310.583,76C310.725,76 310.833,76.15 310.833,76.346C310.833,76.691 312.159,78.167 312.469,78.167C312.558,78.167 312.674,78.279 312.727,78.417C312.78,78.554 312.975,78.667 313.161,78.667C313.351,78.667 313.5,78.776 313.5,78.917C313.5,79.081 313.665,79.167 313.982,79.167C314.257,79.167 314.506,79.274 314.56,79.417C314.613,79.554 314.809,79.667 314.995,79.667C315.181,79.667 315.333,79.742 315.333,79.833C315.333,79.925 315.639,80 316.012,80C316.393,80 316.8,80.11 316.94,80.25C317.114,80.423 317.539,80.5 318.327,80.5C319.184,80.5 319.488,80.562 319.56,80.75C319.707,81.133 324.583,81.119 324.799,80.735C324.914,80.528 325.215,80.472 326.147,80.48C327.058,80.489 327.37,80.433 327.441,80.246C327.502,80.087 327.766,80 328.184,80C328.541,80 328.833,79.925 328.833,79.833C328.833,79.742 328.978,79.667 329.155,79.667C329.332,79.667 329.589,79.554 329.726,79.417C329.864,79.279 330.132,79.167 330.321,79.167C330.517,79.167 330.667,79.058 330.667,78.917C330.667,78.779 330.787,78.667 330.934,78.667C331.104,78.667 331.167,78.575 331.106,78.417C331.036,78.233 331.13,78.165 331.464,78.161C331.96,78.156 332.5,77.823 332.5,77.523C332.5,77.419 332.612,77.333 332.75,77.333C332.906,77.333 333,77.176 333,76.917C333,76.657 332.906,76.5 332.75,76.5C332.612,76.5 332.5,76.387 332.5,76.25C332.5,76.097 332.345,76 332.101,76C331.882,76 331.659,75.887 331.606,75.75C331.539,75.574 331.264,75.5 330.672,75.5C330.038,75.5 329.833,75.561 329.833,75.75C329.833,75.906 329.676,76 329.417,76C329.157,76 329,76.094 329,76.25C329,76.387 328.887,76.5 328.75,76.5C328.612,76.5 328.5,76.575 328.5,76.667C328.5,76.758 328.313,76.833 328.083,76.833C327.824,76.833 327.667,76.928 327.667,77.083C327.667,77.264 327.481,77.333 326.995,77.333C326.551,77.333 326.29,77.418 326.227,77.583C326.154,77.774 325.842,77.833 324.913,77.833C324.122,77.833 323.671,77.903 323.629,78.031C323.543,78.289 321.026,78.282 320.541,78.022C320.347,77.918 319.78,77.833 319.281,77.833C318.678,77.833 318.305,77.75 318.167,77.583C318.053,77.446 317.704,77.333 317.391,77.333C317.04,77.333 316.786,77.238 316.727,77.083C316.674,76.946 316.452,76.833 316.232,76.833C316.013,76.833 315.833,76.758 315.833,76.667C315.833,76.575 315.729,76.5 315.601,76.5C315.473,76.5 315.326,76.387 315.273,76.25C315.22,76.112 314.987,76 314.755,76C314.491,76 314.333,75.906 314.333,75.75C314.333,75.612 314.258,75.5 314.167,75.5C314.075,75.5 314,75.387 314,75.25C314,75.112 313.906,75.019 313.792,75.042C313.674,75.065 313.56,74.883 313.531,74.625C313.5,74.363 313.376,74.167 313.239,74.167C313.095,74.167 313,74.001 313,73.75C313,73.521 312.925,73.333 312.833,73.333C312.735,73.333 312.667,72.75 312.667,71.917C312.667,71.083 312.735,70.5 312.833,70.5C312.925,70.5 313,70.283 313,70.018C313,69.743 313.107,69.494 313.25,69.44C313.387,69.387 313.5,69.191 313.5,69.005C313.5,68.819 313.58,68.667 313.679,68.667C313.909,68.667 314.333,68.243 314.333,68.012C314.333,67.914 314.446,67.833 314.583,67.833C314.721,67.833 314.833,67.721 314.833,67.583C314.833,67.431 314.989,67.333 315.232,67.333C315.452,67.333 315.674,67.221 315.727,67.083C315.78,66.946 316.013,66.833 316.245,66.833C316.477,66.833 316.667,66.758 316.667,66.667C316.667,66.575 316.846,66.5 317.066,66.5C317.285,66.5 317.508,66.387 317.56,66.25C317.628,66.074 317.903,66 318.495,66C319.117,66 319.333,65.938 319.333,65.758C319.333,65.468 320.496,65.391 323.708,65.468C325.426,65.509 325.833,65.565 325.833,65.759C325.833,65.925 326.027,66.002 326.458,66.005C326.802,66.008 327.229,66.121 327.407,66.255C327.585,66.39 327.904,66.5 328.115,66.5C328.327,66.5 328.5,66.575 328.5,66.667C328.5,66.758 328.612,66.833 328.75,66.833C328.887,66.833 329,66.907 329,66.997C329,67.087 329.188,67.207 329.417,67.265C329.646,67.322 329.833,67.456 329.833,67.561C329.833,67.869 330.823,68.243 331.047,68.02C331.149,67.917 331.435,67.833 331.682,67.833C331.929,67.833 332.174,67.721 332.227,67.583C332.28,67.446 332.475,67.333 332.661,67.333C332.945,67.333 333,67.226 333,66.667C333,66.185 332.931,66 332.75,66C332.612,66 332.5,65.887 332.5,65.75C332.5,65.612 332.387,65.5 332.25,65.5C332.112,65.5 332,65.425 332,65.333C332,65.242 331.848,65.167 331.661,65.167C331.475,65.167 331.28,65.054 331.227,64.917C331.174,64.779 331.033,64.667 330.913,64.667C330.793,64.667 330.669,64.607 330.639,64.534C330.549,64.32 329.186,63.667 328.828,63.667C328.648,63.667 328.5,63.592 328.5,63.5C328.5,63.408 328.096,63.333 327.601,63.333C326.967,63.333 326.675,63.262 326.609,63.09C326.467,62.721 318.702,62.714 318.56,63.083M351.167,63.083C351.167,63.221 351.046,63.333 350.899,63.333C350.729,63.333 350.666,63.425 350.727,63.583C350.785,63.736 350.727,63.833 350.578,63.833C350.428,63.833 350.333,63.995 350.333,64.25C350.333,64.509 350.239,64.667 350.083,64.667C349.946,64.667 349.833,64.779 349.833,64.917C349.833,65.054 349.76,65.167 349.67,65.167C349.58,65.167 349.459,65.354 349.402,65.583C349.344,65.813 349.23,66 349.149,66C349.067,66 349,66.112 349,66.25C349,66.387 348.887,66.5 348.75,66.5C348.594,66.5 348.5,66.657 348.5,66.917C348.5,67.146 348.405,67.333 348.289,67.333C348.173,67.333 347.949,67.633 347.79,68C347.631,68.367 347.435,68.667 347.353,68.667C347.272,68.667 347.161,68.798 347.108,68.958C346.968,69.373 346.619,69.894 346.375,70.05C346.26,70.123 346.167,70.292 346.167,70.425C346.167,70.558 346.092,70.667 346,70.667C345.908,70.667 345.833,70.774 345.833,70.905C345.833,71.036 345.74,71.245 345.625,71.37C345.321,71.702 345.004,72.208 344.892,72.542C344.839,72.702 344.709,72.834 344.606,72.835C344.406,72.836 344,73.583 344,73.95C344,74.069 343.896,74.167 343.769,74.167C343.643,74.167 343.495,74.298 343.441,74.458C343.314,74.835 342.963,75.384 342.75,75.536C342.658,75.602 342.58,75.752 342.576,75.869C342.563,76.206 342.108,76.833 341.877,76.833C341.761,76.833 341.665,77.002 341.664,77.208C341.662,77.415 341.475,77.76 341.247,77.976C341.02,78.192 340.833,78.548 340.833,78.767C340.833,79.011 340.736,79.167 340.583,79.167C340.446,79.167 340.333,79.279 340.333,79.417C340.333,79.554 340.216,79.667 340.072,79.667C339.896,79.667 339.828,79.789 339.863,80.042C339.932,80.528 343.5,80.738 343.5,80.256C343.5,80.115 343.613,80 343.75,80C343.887,80 344,79.887 344,79.75C344,79.612 344.075,79.5 344.167,79.5C344.258,79.5 344.333,79.313 344.333,79.083C344.333,78.824 344.428,78.667 344.583,78.667C344.721,78.667 344.833,78.562 344.833,78.434C344.833,78.307 344.946,78.159 345.083,78.106C345.221,78.054 345.333,77.858 345.333,77.672C345.333,77.486 345.408,77.333 345.5,77.333C345.592,77.333 345.667,77.221 345.667,77.083C345.667,76.946 345.779,76.833 345.917,76.833C346.072,76.833 346.167,76.676 346.167,76.417C346.167,76.157 346.261,76 346.417,76C346.554,76 346.667,75.887 346.667,75.75C346.667,75.533 347.407,75.5 352.333,75.5C357.259,75.5 358,75.533 358,75.75C358,75.887 358.113,76 358.25,76C358.394,76 358.5,76.151 358.5,76.356C358.5,76.552 358.688,76.886 358.917,77.098C359.146,77.31 359.333,77.638 359.333,77.825C359.333,78.018 359.443,78.167 359.583,78.167C359.721,78.167 359.833,78.279 359.833,78.417C359.833,78.554 359.946,78.667 360.083,78.667C360.236,78.667 360.333,78.822 360.333,79.066C360.333,79.285 360.457,79.512 360.607,79.569C360.758,79.627 360.839,79.716 360.788,79.768C360.411,80.144 361.405,80.5 362.833,80.5L364.333,80.5L364.333,79.833C364.333,79.352 364.264,79.167 364.083,79.167C363.928,79.167 363.833,79.009 363.833,78.75C363.833,78.521 363.758,78.333 363.667,78.333C363.575,78.333 363.5,78.221 363.5,78.083C363.5,77.946 363.387,77.833 363.25,77.833C363.098,77.833 363,77.679 363,77.44C363,77.215 362.822,76.913 362.583,76.734C362.354,76.562 362.167,76.294 362.167,76.139C362.167,75.984 362.054,75.745 361.917,75.607C361.779,75.47 361.667,75.268 361.667,75.158C361.667,75.011 361.599,75.015 361.407,75.174C361.265,75.293 361.161,75.321 361.177,75.237C361.275,74.724 361.139,74.167 360.917,74.167C360.779,74.167 360.667,74.069 360.667,73.95C360.667,73.567 360.257,72.836 360.042,72.835C359.927,72.834 359.833,72.646 359.833,72.417C359.833,72.157 359.739,72 359.583,72C359.446,72 359.333,71.887 359.333,71.75C359.333,71.612 359.221,71.5 359.083,71.5C358.924,71.5 358.833,71.34 358.833,71.061C358.833,70.806 358.658,70.459 358.417,70.235C358.188,70.023 358,69.696 358,69.508C358,69.316 357.891,69.167 357.75,69.167C357.613,69.167 357.5,69.054 357.5,68.917C357.5,68.779 357.425,68.667 357.333,68.667C357.242,68.667 357.167,68.514 357.167,68.328C357.167,68.142 357.061,67.949 356.932,67.899C356.802,67.85 356.651,67.627 356.595,67.405C356.539,67.182 356.42,67 356.33,67C356.24,67 356.167,66.887 356.167,66.75C356.167,66.612 356.054,66.5 355.917,66.5C355.77,66.5 355.664,66.345 355.661,66.125C355.655,65.695 355.303,65.167 355.023,65.167C354.919,65.167 354.833,64.942 354.833,64.667C354.833,64.333 354.75,64.167 354.583,64.167C354.446,64.167 354.333,64.054 354.333,63.917C354.333,63.779 354.221,63.667 354.083,63.667C353.928,63.667 353.833,63.509 353.833,63.25C353.833,62.84 353.811,62.833 352.5,62.833C351.426,62.833 351.167,62.882 351.167,63.083M372.085,63.375C372.031,63.673 372.009,67.629 372.036,72.167L372.083,80.417L389.333,80.503L389.333,77.833L375.333,77.833L375.333,70.597C375.333,62.002 375.513,62.833 373.656,62.833L372.182,62.833L372.085,63.375M277.667,65.75C277.667,65.948 277.907,66 278.833,66C279.759,66 280,66.052 280,66.25C280,66.404 280.156,66.5 280.407,66.5C280.631,66.5 280.86,66.575 280.917,66.667C280.973,66.758 281.203,66.833 281.427,66.833C281.677,66.833 281.833,66.929 281.833,67.083C281.833,67.239 281.991,67.333 282.25,67.333C282.509,67.333 282.667,67.428 282.667,67.583C282.667,67.721 282.779,67.833 282.917,67.833C283.054,67.833 283.167,67.946 283.167,68.083C283.167,68.221 283.242,68.333 283.333,68.333C283.425,68.333 283.5,68.486 283.5,68.672C283.5,68.858 283.612,69.054 283.75,69.106C283.887,69.159 284,69.376 284,69.589C284,69.802 284.112,70.089 284.25,70.226C284.433,70.41 284.5,70.857 284.5,71.905C284.5,73.063 284.453,73.333 284.25,73.333C284.094,73.333 284,73.491 284,73.75C284,74.009 283.906,74.167 283.75,74.167C283.612,74.167 283.5,74.276 283.5,74.409C283.5,74.895 283.115,75.477 282.729,75.574C282.511,75.628 282.333,75.747 282.333,75.837C282.333,75.926 282.218,76 282.078,76C281.938,76 281.78,76.112 281.727,76.25C281.674,76.387 281.452,76.5 281.232,76.5C281.013,76.5 280.833,76.575 280.833,76.667C280.833,76.758 280.654,76.833 280.434,76.833C280.215,76.833 279.992,76.946 279.94,77.083C279.872,77.26 279.597,77.333 279.005,77.333C278.371,77.333 278.167,77.394 278.167,77.583C278.167,77.8 277.519,77.833 273.333,77.833L268.5,77.833L268.5,65.5L273.083,65.5C277.046,65.5 277.667,65.534 277.667,65.75M353,67.75C353,68.009 353.094,68.167 353.25,68.167C353.387,68.167 353.5,68.279 353.5,68.417C353.5,68.554 353.613,68.667 353.75,68.667C353.907,68.667 354,68.825 354,69.095C354,69.535 354.337,70 354.655,70C354.753,70 354.833,70.225 354.833,70.5C354.833,70.792 354.921,71 355.044,71C355.16,71 355.388,71.307 355.55,71.682C355.739,72.119 355.927,72.333 356.071,72.278C356.226,72.218 356.27,72.291 356.212,72.512C356.132,72.817 355.94,72.833 352.462,72.833L348.797,72.833L348.911,72.375C348.973,72.123 349.094,71.892 349.179,71.861C349.264,71.831 349.333,71.699 349.333,71.569C349.333,71.44 349.446,71.333 349.583,71.333C349.739,71.333 349.833,71.176 349.833,70.917C349.833,70.657 349.928,70.5 350.083,70.5C350.221,70.5 350.333,70.387 350.333,70.25C350.333,70.112 350.408,70 350.5,70C350.592,70 350.667,69.813 350.667,69.583C350.667,69.324 350.761,69.167 350.917,69.167C351.054,69.167 351.167,69.054 351.167,68.917C351.167,68.779 351.279,68.667 351.417,68.667C351.556,68.667 351.667,68.519 351.667,68.333C351.667,67.88 352.168,67.364 352.625,67.347C352.918,67.336 353,67.425 353,67.75M273.042,78.291C272.194,78.321 270.806,78.321 269.958,78.291C269.11,78.261 269.804,78.236 271.5,78.236C273.196,78.236 273.89,78.261 273.042,78.291" style="fill:rgb(68,60,156);"/>
                <path id="path2" d="M22.161,58.156C22.384,58.573 22.386,62.591 22.163,63.007C22.025,63.264 22.041,63.307 22.246,63.228C22.628,63.082 22.626,57.833 22.244,57.833C22.043,57.833 22.025,57.902 22.161,58.156M26.278,57.944C26.105,58.117 26.146,63.167 26.32,63.167C26.404,63.167 26.606,63.218 26.769,63.281C27.025,63.379 27.016,63.324 26.7,62.88C26.226,62.214 26.148,58.838 26.593,58.204C26.846,57.842 26.591,57.631 26.278,57.944M51.875,57.958C53.594,57.985 56.406,57.985 58.125,57.958C59.844,57.931 58.438,57.909 55,57.909C51.563,57.909 50.156,57.931 51.875,57.958M11.802,63.291C13.206,63.319 15.456,63.319 16.802,63.291C18.148,63.263 17,63.24 14.25,63.241C11.5,63.241 10.398,63.263 11.802,63.291M163.244,71.667C163.244,76.112 163.265,77.931 163.292,75.708C163.318,73.485 163.318,69.848 163.292,67.625C163.265,65.402 163.244,67.221 163.244,71.667M241.243,67.791L241.25,70.083L254.75,70.089L248.046,70.043L241.343,69.996L241.235,65.5L241.243,67.791M169.531,70.125C171.335,70.152 174.335,70.152 176.197,70.125C178.06,70.098 176.583,70.076 172.917,70.076C169.25,70.076 167.726,70.098 169.531,70.125M241.234,75.333C241.234,76.754 241.259,77.335 241.291,76.625C241.322,75.915 241.322,74.752 241.291,74.042C241.259,73.331 241.234,73.912 241.234,75.333M269.958,78.291C270.806,78.321 272.194,78.321 273.042,78.291C273.89,78.261 273.196,78.236 271.5,78.236C269.804,78.236 269.11,78.261 269.958,78.291M43.343,79.214C43.337,79.627 43.419,79.877 43.583,79.94C43.721,79.992 43.833,80.14 43.833,80.268C43.833,80.456 44.308,80.5 46.333,80.5C48.575,80.5 48.833,80.471 48.833,80.217C48.833,79.996 48.789,79.978 48.633,80.133C48.35,80.417 44.238,80.412 44.052,80.127C43.977,80.014 43.79,79.62 43.634,79.252L43.352,78.583L43.343,79.214M43.833,84.45C43.833,84.67 43.878,84.689 44.033,84.533C44.352,84.215 47.993,84.264 48.463,84.593C48.81,84.836 48.833,84.83 48.833,84.509C48.833,84.179 48.745,84.167 46.333,84.167C44.092,84.167 43.833,84.196 43.833,84.45" style="fill:rgb(68,68,156);"/>
                <path id="path3" d="M21.786,58.01C21.907,58.166 22.01,58.997 22.042,60.093L22.096,61.917L22.131,60.062C22.162,58.467 22.126,58.175 21.875,57.979C21.618,57.777 21.608,57.781 21.786,58.01M26.673,58.405C26.518,58.694 26.478,59.328 26.531,60.615C26.648,63.466 26.917,63.378 26.917,60.488C26.917,59.12 26.911,58 26.903,58C26.896,58 26.792,58.182 26.673,58.405M43.833,79.468C43.833,80.193 48.416,80.542 48.632,79.833C48.694,79.632 48.666,79.624 48.487,79.792C48.082,80.174 44.572,80.072 44.167,79.667C43.983,79.483 43.833,79.394 43.833,79.468M43.942,84.792C43.9,84.86 44.938,84.917 46.25,84.917C47.562,84.917 48.548,84.862 48.442,84.794C48.189,84.633 44.042,84.63 43.942,84.792M21.576,91.333C21.576,94.862 21.598,96.306 21.625,94.542C21.652,92.777 21.652,89.89 21.625,88.125C21.598,86.36 21.576,87.804 21.576,91.333" style="fill:rgb(68,140,188);"/>
                <path id="path4" d="M26.593,58.204C26.163,58.817 26.23,62.281 26.682,62.833L27.022,63.25L26.814,62.833C26.452,62.111 26.405,58.799 26.749,58.275C27.098,57.742 26.96,57.679 26.593,58.204M22.232,60.583C22.233,61.867 22.259,62.37 22.291,61.701C22.322,61.032 22.322,59.982 22.29,59.368C22.258,58.753 22.232,59.3 22.232,60.583M43.838,79.758C43.825,80.228 44.284,80.333 46.333,80.333C48.383,80.333 48.842,80.228 48.828,79.758C48.825,79.662 48.747,79.715 48.653,79.875C48.505,80.129 48.205,80.167 46.333,80.167C44.461,80.167 44.161,80.129 44.013,79.875C43.92,79.715 43.841,79.662 43.838,79.758M44.034,84.542C43.897,84.707 44.304,84.739 46.007,84.699C47.347,84.667 48.298,84.718 48.535,84.834L48.917,85.019L48.523,84.676C48.047,84.261 44.359,84.151 44.034,84.542" style="fill:rgb(68,124,180);"/>
            </g>
        </g>
        <g id="watermark.svg1" serif:id="watermark.svg">
        </g>
    </g>
</svg>
